<svg width="278" height="73" viewBox="0 0 278 73" fill="none" xmlns="http://www.w3.org/2000/svg">
<path fill-rule="evenodd" clip-rule="evenodd" d="M21.6118 49.227L23.5329 47.3059V36.7058L24.7336 63.6349L38.2232 66.6944L37.7755 61.9505L42.4542 67.654L43.977 67.9994L46.1309 62.3041L36.7401 29.5362L23.0526 25.9342L23.1417 27.9311L21.6118 23.5329V20.6513L32.898 19.6908L38.9013 17.5296L32.898 14.8882L36.7401 6.72368L36.0197 0L38.9013 6.72368L36.7401 13.2072L41.0625 16.3289H44.9046C45.9452 18.17 49.6592 21.4197 56.1908 19.6908L59.0724 27.6151H62.2184C61.0116 28.1915 59.884 28.6774 58.8932 29.0559C57.7406 31.1691 60.1739 36.1798 61.5346 38.4211C62.9194 38.4458 64.335 38.2851 65.7611 37.9755L61.2336 41.0625L63.6349 45.3849L64.5421 48.288L66.5164 47.0658L81.1645 37.2204L84.5263 32.4178V38.6612L78.7632 42.023L74.4408 53.7895H81.1645L90.5296 56.6711H84.5263L75.4013 62.1941L43.9441 73L43.724 72.9415L43.5858 73L40.5654 72.1014L21.3717 66.9967L6.96382 54.9901L18.0099 56.6711L9.125 48.0263V42.023L0 37.2204L12.2467 40.102L14.8882 46.3454L23.8631 51.028L21.6118 49.227ZM58.8913 60.1089L60.1701 62.2394L68.9178 56.4441C62.4585 52.1994 58.2685 34.0548 56.457 26.2099L56.4569 26.2097L56.4569 26.2097C55.9114 23.8472 55.5815 22.4188 55.4704 22.5855C55.0862 23.1619 43.9441 27.7884 38.4211 30.0296L47.0367 59.9092L47.9791 57.4174L49.6797 67.0503L53.6478 63.3671L57.1907 61.9505L54.9232 58.2673L62.4342 53.3092L58.8913 60.1089ZM42.9836 17.2895C38.373 22.4763 27.6151 23.4529 22.8125 23.2928L24.0132 25.4539L37.7007 29.0559L54.75 21.6118C46.8257 21.6118 43.864 18.8904 42.9836 17.2895ZM78.3108 13.4474C78.4789 19.9055 66.0511 27.0398 59.8161 29.3857C58.8073 31.2072 60.937 35.5265 62.128 37.4584C71.5434 37.624 82.5842 28.1438 86.9276 23.7969L85.4565 16.3452L78.3108 13.4474ZM34.3388 39.6217L29.7763 38.9013L28.8158 46.8257L31.9375 48.7467L36.0197 47.5461L34.3388 39.6217Z" fill="white"/>
<path d="M262.936 48.5811C263.912 49.167 264.986 49.5983 266.158 49.875C267.33 50.1517 268.53 50.29 269.759 50.29C270.589 50.29 271.281 50.2331 271.834 50.1191C272.388 50.0052 272.831 49.8587 273.165 49.6797C273.499 49.5007 273.735 49.2972 273.873 49.0693C274.011 48.8415 274.081 48.6095 274.081 48.3735C274.081 48.0317 273.93 47.7388 273.629 47.4946C273.336 47.2505 272.848 47.1284 272.164 47.1284C271.847 47.1284 271.505 47.1488 271.139 47.1895C270.772 47.2301 270.386 47.2749 269.979 47.3237C269.58 47.3644 269.161 47.4051 268.722 47.4458C268.29 47.4865 267.851 47.5068 267.403 47.5068C266.427 47.5068 265.593 47.401 264.901 47.1895C264.217 46.9779 263.66 46.689 263.229 46.3228C262.797 45.9565 262.484 45.5252 262.289 45.0288C262.093 44.5243 261.996 43.9831 261.996 43.4053C261.996 42.6729 262.167 41.9974 262.508 41.3789C262.85 40.7604 263.338 40.2274 263.973 39.7798C264.608 39.3241 265.373 38.9701 266.268 38.7178C267.171 38.4655 268.176 38.3394 269.283 38.3394C269.861 38.3394 270.463 38.376 271.09 38.4492C271.725 38.5143 272.347 38.6038 272.958 38.7178C273.568 38.8317 274.154 38.966 274.715 39.1206C275.277 39.2671 275.773 39.4258 276.205 39.5967L275.069 42.4043C274.15 42.0625 273.23 41.7939 272.311 41.5986C271.399 41.3952 270.459 41.2935 269.491 41.2935C268.815 41.2935 268.242 41.3464 267.77 41.4521C267.306 41.5498 266.927 41.6841 266.634 41.855C266.341 42.0177 266.126 42.209 265.987 42.4287C265.857 42.6403 265.792 42.8641 265.792 43.1001C265.792 43.271 265.825 43.4256 265.89 43.564C265.963 43.7023 266.077 43.8244 266.231 43.9302C266.394 44.0278 266.602 44.1051 266.854 44.1621C267.114 44.2109 267.432 44.2354 267.806 44.2354C268.148 44.2354 268.51 44.215 268.893 44.1743C269.275 44.1336 269.674 44.0929 270.089 44.0522C270.504 44.0034 270.931 43.9587 271.371 43.918C271.818 43.8773 272.274 43.8569 272.738 43.8569C273.6 43.8569 274.353 43.9587 274.996 44.1621C275.647 44.3656 276.184 44.6504 276.607 45.0166C277.031 45.3828 277.348 45.8141 277.56 46.3105C277.771 46.807 277.877 47.3481 277.877 47.9341C277.877 48.6909 277.702 49.3949 277.352 50.0459C277.002 50.6969 276.481 51.2625 275.79 51.7427C275.098 52.2147 274.235 52.585 273.202 52.8535C272.176 53.1221 270.988 53.2563 269.637 53.2563C268.807 53.2563 268.006 53.2035 267.232 53.0977C266.459 53 265.723 52.8657 265.023 52.6948C264.323 52.5158 263.664 52.3083 263.045 52.0723C262.435 51.8363 261.878 51.584 261.373 51.3154L262.936 48.5811Z" fill="white"/>
<path d="M241.439 32.7485H245.052V39.9507C245.37 39.731 245.744 39.5234 246.175 39.3281C246.607 39.1328 247.07 38.9619 247.567 38.8154C248.063 38.6689 248.576 38.555 249.105 38.4736C249.634 38.3841 250.163 38.3394 250.692 38.3394C251.913 38.3394 253.032 38.5184 254.049 38.8765C255.074 39.2345 255.953 39.7391 256.686 40.3901C257.418 41.0412 257.988 41.8224 258.395 42.7339C258.81 43.6372 259.017 44.6382 259.017 45.7368C259.017 46.8843 258.801 47.9219 258.37 48.8496C257.939 49.7692 257.341 50.5586 256.576 51.2178C255.819 51.8688 254.916 52.3734 253.866 52.7314C252.824 53.0814 251.693 53.2563 250.472 53.2563C249.951 53.2563 249.435 53.2238 248.922 53.1587C248.417 53.0936 247.929 53.0041 247.457 52.8901C246.993 52.7762 246.554 52.6419 246.139 52.4873C245.732 52.3245 245.37 52.1496 245.052 51.9624V53H241.439V32.7485ZM245.052 48.4712C245.418 48.7642 245.805 49.0124 246.212 49.2158C246.619 49.4193 247.034 49.5861 247.457 49.7163C247.88 49.8465 248.307 49.9442 248.739 50.0093C249.17 50.0662 249.589 50.0947 249.996 50.0947C250.826 50.0947 251.563 49.9849 252.206 49.7651C252.857 49.5373 253.402 49.228 253.841 48.8374C254.289 48.4468 254.631 47.987 254.867 47.458C255.103 46.929 255.221 46.3553 255.221 45.7368C255.221 45.159 255.103 44.6138 254.867 44.1011C254.639 43.5884 254.305 43.1408 253.866 42.7583C253.434 42.3677 252.91 42.0625 252.291 41.8428C251.681 41.6149 250.993 41.501 250.228 41.501C249.74 41.501 249.251 41.5498 248.763 41.6475C248.275 41.737 247.803 41.8672 247.347 42.0381C246.9 42.209 246.476 42.4165 246.078 42.6606C245.687 42.9048 245.345 43.1774 245.052 43.4785V48.4712Z" fill="white"/>
<path d="M220.077 48.459C220.077 47.7673 220.227 47.1366 220.528 46.5669C220.829 45.9972 221.281 45.509 221.883 45.1021C222.486 44.687 223.234 44.3696 224.129 44.1499C225.033 43.922 226.083 43.8081 227.279 43.8081C228.166 43.8081 229.098 43.8732 230.074 44.0034C231.059 44.1336 232.072 44.333 233.114 44.6016C233.073 44.1458 232.935 43.7267 232.699 43.3442C232.463 42.9536 232.133 42.62 231.71 42.3433C231.295 42.0584 230.79 41.8387 230.196 41.6841C229.61 41.5295 228.943 41.4521 228.194 41.4521C227.787 41.4521 227.34 41.4766 226.852 41.5254C226.363 41.5742 225.859 41.6475 225.338 41.7451C224.817 41.8428 224.3 41.9648 223.788 42.1113C223.283 42.2578 222.811 42.4328 222.372 42.6362L221.273 39.6699C221.818 39.4746 222.4 39.2956 223.019 39.1328C223.645 38.9701 224.284 38.8317 224.935 38.7178C225.586 38.5957 226.237 38.5021 226.888 38.437C227.539 38.3719 228.17 38.3394 228.78 38.3394C231.474 38.3394 233.476 39.027 234.786 40.4023C236.096 41.7777 236.751 43.8854 236.751 46.7256V53H233.138V51.645C232.764 51.8647 232.353 52.0723 231.905 52.2676C231.466 52.4629 230.986 52.6338 230.465 52.7803C229.944 52.9268 229.382 53.0407 228.78 53.1221C228.186 53.2116 227.556 53.2563 226.888 53.2563C225.765 53.2563 224.776 53.1343 223.922 52.8901C223.076 52.646 222.368 52.3083 221.798 51.877C221.228 51.4456 220.797 50.9411 220.504 50.3633C220.219 49.7773 220.077 49.1426 220.077 48.459ZM223.885 48.3369C223.885 48.5729 223.946 48.8008 224.068 49.0205C224.19 49.2321 224.386 49.4233 224.654 49.5942C224.923 49.757 225.265 49.8913 225.68 49.9971C226.103 50.0947 226.611 50.1436 227.206 50.1436C227.84 50.1436 228.455 50.0866 229.049 49.9727C229.643 49.8587 230.196 49.7082 230.709 49.521C231.222 49.3338 231.686 49.1182 232.101 48.874C232.516 48.6299 232.861 48.3776 233.138 48.1172V47.4824C232.585 47.3278 232.035 47.1976 231.49 47.0918C230.953 46.986 230.436 46.9046 229.94 46.8477C229.452 46.7826 228.988 46.7378 228.548 46.7134C228.117 46.689 227.739 46.6768 227.413 46.6768C226.738 46.6768 226.176 46.7215 225.729 46.811C225.281 46.9006 224.919 47.0226 224.642 47.1772C224.365 47.3237 224.17 47.4987 224.056 47.7021C223.942 47.9056 223.885 48.1172 223.885 48.3369Z" fill="white"/>
<path d="M202.486 33.9204H206.356V49.6064H217.452V53H202.486V33.9204Z" fill="white"/>
<path d="M180.453 45.749C180.453 44.7725 180.652 43.8407 181.051 42.9536C181.45 42.0584 182.023 41.269 182.772 40.5854C183.521 39.9019 184.436 39.3566 185.519 38.9497C186.609 38.5428 187.846 38.3394 189.229 38.3394C190.605 38.3394 191.842 38.5469 192.94 38.9619C194.047 39.3688 194.983 39.9303 195.748 40.6465C196.521 41.3626 197.111 42.2049 197.518 43.1733C197.933 44.1418 198.141 45.1794 198.141 46.2861C198.141 46.4245 198.137 46.575 198.128 46.7378C198.128 46.8924 198.12 47.0348 198.104 47.165H184.481C184.636 47.5964 184.884 47.991 185.226 48.3491C185.576 48.7072 186.011 49.0164 186.532 49.2769C187.053 49.5373 187.655 49.7407 188.338 49.8872C189.022 50.0256 189.779 50.0947 190.609 50.0947C191.439 50.0947 192.265 50.0093 193.087 49.8384C193.909 49.6593 194.694 49.4355 195.443 49.167L196.664 51.9258C196.192 52.1455 195.711 52.3408 195.223 52.5117C194.743 52.6745 194.238 52.8128 193.709 52.9268C193.189 53.0326 192.639 53.1139 192.062 53.1709C191.492 53.2279 190.89 53.2563 190.255 53.2563C188.635 53.2563 187.215 53.061 185.995 52.6704C184.774 52.2798 183.753 51.7467 182.931 51.0713C182.109 50.3958 181.49 49.6024 181.075 48.6909C180.66 47.7795 180.453 46.7988 180.453 45.749ZM194.308 44.3452C194.177 43.9465 193.974 43.5762 193.697 43.2344C193.429 42.8844 193.091 42.5833 192.684 42.3311C192.277 42.0706 191.805 41.8672 191.268 41.7207C190.731 41.5742 190.141 41.501 189.498 41.501C188.814 41.501 188.192 41.5783 187.63 41.7329C187.069 41.8875 186.576 42.0951 186.153 42.3555C185.73 42.6159 185.376 42.917 185.091 43.2588C184.815 43.6006 184.611 43.9627 184.481 44.3452H194.308Z" fill="white"/>
<path d="M162.569 55.4414C163.025 55.6042 163.489 55.7384 163.961 55.8442C164.433 55.9582 164.889 56.0477 165.328 56.1128C165.776 56.186 166.203 56.2349 166.61 56.2593C167.017 56.2918 167.379 56.3081 167.696 56.3081C168.657 56.3081 169.491 56.1901 170.199 55.9541C170.915 55.7262 171.509 55.417 171.981 55.0264C172.461 54.6357 172.819 54.18 173.055 53.6592C173.291 53.1465 173.409 52.6012 173.409 52.0234V51.4009C173.1 51.6125 172.738 51.8159 172.323 52.0112C171.908 52.2065 171.452 52.3774 170.956 52.5239C170.459 52.6704 169.93 52.7884 169.369 52.8779C168.815 52.9674 168.242 53.0122 167.647 53.0122C166.467 53.0122 165.377 52.8372 164.376 52.4873C163.375 52.1292 162.508 51.6328 161.776 50.998C161.043 50.3551 160.47 49.5861 160.055 48.6909C159.648 47.7957 159.444 46.8029 159.444 45.7124C159.444 44.5975 159.66 43.5884 160.091 42.6851C160.523 41.7736 161.117 40.9964 161.874 40.3535C162.639 39.7106 163.542 39.2142 164.583 38.8643C165.625 38.5143 166.756 38.3394 167.977 38.3394C168.498 38.3394 169.015 38.3719 169.527 38.437C170.04 38.5021 170.528 38.5916 170.992 38.7056C171.464 38.8195 171.904 38.9578 172.311 39.1206C172.726 39.2752 173.092 39.4461 173.409 39.6333V38.5957H177.022V51.3521C177.022 52.6623 176.823 53.8219 176.424 54.8311C176.026 55.8402 175.44 56.6865 174.667 57.3701C173.902 58.0618 172.949 58.5827 171.81 58.9326C170.671 59.2907 169.365 59.4697 167.892 59.4697C167.363 59.4697 166.813 59.4453 166.244 59.3965C165.674 59.3558 165.1 59.2907 164.522 59.2012C163.953 59.1198 163.387 59.0181 162.826 58.896C162.272 58.7821 161.739 58.6478 161.227 58.4932L162.569 55.4414ZM163.241 45.6758C163.241 46.2536 163.355 46.7988 163.583 47.3115C163.819 47.8161 164.152 48.2596 164.583 48.6421C165.015 49.0164 165.536 49.3135 166.146 49.5332C166.756 49.7448 167.444 49.8506 168.209 49.8506C168.705 49.8506 169.198 49.8058 169.686 49.7163C170.182 49.6187 170.654 49.4844 171.102 49.3135C171.558 49.1426 171.981 48.9351 172.372 48.6909C172.77 48.4468 173.116 48.1742 173.409 47.873V43.1245C173.043 42.8315 172.656 42.5833 172.25 42.3799C171.843 42.1764 171.428 42.0096 171.004 41.8794C170.581 41.7492 170.154 41.6556 169.723 41.5986C169.291 41.5335 168.872 41.501 168.465 41.501C167.635 41.501 166.895 41.6108 166.244 41.8306C165.601 42.0503 165.056 42.3514 164.608 42.7339C164.168 43.1082 163.831 43.5477 163.595 44.0522C163.359 44.5568 163.241 45.098 163.241 45.6758Z" fill="white"/>
<path d="M147.762 38.5957H151.375V40.6709C152.173 40.0768 153.015 39.5641 153.902 39.1328C154.789 38.7015 155.672 38.3719 156.551 38.144L157.613 41.4521C156.222 41.5905 154.997 41.9038 153.939 42.3921C152.889 42.8722 152.035 43.5518 151.375 44.4307V53H147.762V38.5957Z" fill="white"/>
<path d="M126.192 45.7979C126.192 44.7643 126.4 43.7959 126.815 42.8926C127.238 41.9893 127.836 41.1999 128.609 40.5244C129.391 39.849 130.331 39.3159 131.429 38.9253C132.536 38.5347 133.777 38.3394 135.152 38.3394C136.528 38.3394 137.765 38.5347 138.863 38.9253C139.97 39.3159 140.91 39.849 141.683 40.5244C142.464 41.1999 143.062 41.9893 143.478 42.8926C143.901 43.7959 144.112 44.7643 144.112 45.7979C144.112 46.8314 143.901 47.7998 143.478 48.7031C143.062 49.6064 142.464 50.3958 141.683 51.0713C140.91 51.7467 139.97 52.2798 138.863 52.6704C137.765 53.061 136.528 53.2563 135.152 53.2563C133.777 53.2563 132.536 53.061 131.429 52.6704C130.331 52.2798 129.391 51.7467 128.609 51.0713C127.836 50.3958 127.238 49.6064 126.815 48.7031C126.4 47.7998 126.192 46.8314 126.192 45.7979ZM129.989 45.7979C129.989 46.3757 130.103 46.925 130.331 47.4458C130.567 47.9585 130.904 48.4142 131.344 48.813C131.791 49.2036 132.333 49.5169 132.967 49.7529C133.61 49.9808 134.339 50.0947 135.152 50.0947C135.966 50.0947 136.69 49.9808 137.325 49.7529C137.968 49.5169 138.509 49.2036 138.949 48.813C139.396 48.4142 139.734 47.9585 139.962 47.4458C140.198 46.925 140.316 46.3757 140.316 45.7979C140.316 45.2201 140.198 44.6707 139.962 44.1499C139.734 43.6291 139.396 43.1733 138.949 42.7827C138.509 42.384 137.968 42.0706 137.325 41.8428C136.69 41.6068 135.966 41.4888 135.152 41.4888C134.339 41.4888 133.61 41.6068 132.967 41.8428C132.333 42.0706 131.791 42.384 131.344 42.7827C130.904 43.1733 130.567 43.6291 130.331 44.1499C130.103 44.6707 129.989 45.2201 129.989 45.7979Z" fill="white"/>
<path d="M106.71 33.9204H123.775V37.314H110.58V42.3066H121.786V45.4927H110.58V53H106.71V33.9204Z" fill="white"/>
</svg>
